<?xml version="1.0" encoding="utf-8"?>
<!-- Generator: Adobe Illustrator 28.3.0, SVG Export Plug-In . SVG Version: 6.00 Build 0)  -->
<svg version="1.1" id="Layer_1" xmlns="http://www.w3.org/2000/svg" xmlns:xlink="http://www.w3.org/1999/xlink" x="0px" y="0px"
	 viewBox="0 0 110.4 170.8" style="enable-background:new 0 0 110.4 170.8;" xml:space="preserve">
<style type="text/css">
	.st0{clip-path:url(#SVGID_00000174586997299131114160000017777298675166028951_);}
	.st1{fill:#00284F;}
</style>
<g>
	<g>
		<g>
			<defs>
				<path id="SVGID_1_" d="M48.1,5.8c-0.9-0.3-8.1-2.1-9.8,0.6c-2.2,3.3,6.5,9.2,8.3,21.5c0.4,2.5,1.2,8.5-1.5,14.6
					c-2.1,4.8-4.9,6.4-12.5,13.7c0,0-3.9,3.7-11.6,11.9c-10,10.6-17.2,29-15.8,47.6c0.5,5.9,1.5,19.8,12.2,32.3
					c14.6,17.2,36,17.7,37.8,17.7c17.3,0.1,32.9-8.8,41.5-21.3c4.8-7,7.7-15.4,8.5-28.7C108.2,64.4,75.4,13.2,48.1,5.8z M55.2,155.8
					c-22.1,0-40-17.9-40-40c0-22.1,17.9-40,40-40c22.1,0,40,17.9,40,40C95.2,137.9,77.3,155.8,55.2,155.8z"/>
			</defs>
			<clipPath id="SVGID_00000161595020494042021380000011604017724518510219_">
				<use xlink:href="#SVGID_1_"  style="overflow:visible;"/>
			</clipPath>
			<g style="clip-path:url(#SVGID_00000161595020494042021380000011604017724518510219_);">
				<g>
					<defs>
						<rect id="SVGID_00000122678453760234386800000004572470135209790099_" x="0" width="110.4" height="170.8"/>
					</defs>
					<clipPath id="SVGID_00000106135639879752719280000001423471544663317431_">
						<use xlink:href="#SVGID_00000122678453760234386800000004572470135209790099_"  style="overflow:visible;"/>
					</clipPath>
					<g style="clip-path:url(#SVGID_00000106135639879752719280000001423471544663317431_);">
						
							<image style="overflow:visible;" width="230" height="357" xlink:href="124B63A7.jpg"  transform="matrix(0.48 0 0 0.48 4.171126e-04 -0.1601)">
						</image>
					</g>
				</g>
			</g>
		</g>
	</g>
	<circle class="st1" cx="72" cy="102.3" r="7.9"/>
</g>
</svg>
